<svg xmlns="http://www.w3.org/2000/svg" viewBox="0 0 827 220" width="827" height="220">
<title>QuickieFix</title>
<line x1="72.9" y1="73.8" x2="125.6" y2="73.8" stroke="#FFAF00" stroke-width="9.9" stroke-linecap="round"/>
<line x1="54.3" y1="98.6" x2="119.4" y2="98.6" stroke="#FFAF00" stroke-width="9.9" stroke-linecap="round"/>
<line x1="69.8" y1="124.6" x2="119.4" y2="124.6" stroke="#FFAF00" stroke-width="9.9" stroke-linecap="round"/>
<circle cx="200.0" cy="106.0" r="49.0" fill="none" stroke="#11263F" stroke-width="26.0"/>
<g transform="translate(201.2,104.8) rotate(-45)"><path d="M 13.02 -28.13 A 31.00 31.00 0 1 1 -13.02 -28.13 L -13.02 2.48 A 4.56 4.56 0 0 0 13.02 2.48 Z" fill="#FFAF00"/><rect x="-9.3" y="3.1" width="18.6" height="106.6" rx="9.3" fill="#FFAF00"/></g>
<path transform="translate(308.5,138.2) scale(0.092000,-0.092000)" fill="#11263F" d="M562 -120 472 1Q432 -7 394 -7Q295 -7 212.5 39.0Q130 85 81.5 167.5Q33 250 33 353Q33 456 81.5 538.0Q130 620 212.5 666.0Q295 712 394 712Q493 712 575.5 666.0Q658 620 705.5 538.0Q753 456 753 353Q753 263 716.5 188.5Q680 114 615 65L769 -120ZM394 149Q478 149 528.5 205.0Q579 261 579 353Q579 446 528.5 501.5Q478 557 394 557Q309 557 258.5 502.0Q208 447 208 353Q208 260 258.5 204.5Q309 149 394 149Z"/>
<path transform="translate(381.0,138.2) scale(0.092000,-0.092000)" fill="#11263F" d="M613 558V0H442V76Q416 39 371.5 16.5Q327 -6 273 -6Q209 -6 160.0 22.5Q111 51 84.0 105.0Q57 159 57 232V558H227V255Q227 199 256.0 168.0Q285 137 334 137Q384 137 413.0 168.0Q442 199 442 255V558Z"/>
<path transform="translate(443.0,138.2) scale(0.092000,-0.092000)" fill="#11263F" d="M46 708Q46 748 74.5 774.5Q103 801 148 801Q192 801 220.5 774.5Q249 748 249 708Q249 669 220.5 642.5Q192 616 148 616Q103 616 74.5 642.5Q46 669 46 708ZM233 558V0H62V558Z"/>
<path transform="translate(470.1,138.2) scale(0.092000,-0.092000)" fill="#11263F" d="M308 566Q413 566 483.5 511.0Q554 456 576 356H394Q371 420 305 420Q258 420 230.0 383.5Q202 347 202 279Q202 211 230.0 174.5Q258 138 305 138Q371 138 394 202H576Q554 104 483.0 48.0Q412 -8 308 -8Q226 -8 162.5 27.0Q99 62 63.5 127.0Q28 192 28 279Q28 366 63.5 431.0Q99 496 162.5 531.0Q226 566 308 566Z"/>
<path transform="translate(525.8,138.2) scale(0.092000,-0.092000)" fill="#11263F" d="M403 0 233 234V0H62V740H233V331L402 558H613L381 278L615 0Z"/>
<path transform="translate(582.7,138.2) scale(0.092000,-0.092000)" fill="#11263F" d="M46 708Q46 748 74.5 774.5Q103 801 148 801Q192 801 220.5 774.5Q249 748 249 708Q249 669 220.5 642.5Q192 616 148 616Q103 616 74.5 642.5Q46 669 46 708ZM233 558V0H62V558Z"/>
<path transform="translate(609.8,138.2) scale(0.092000,-0.092000)" fill="#11263F" d="M585 238H198Q202 186 231.5 158.5Q261 131 304 131Q368 131 393 185H575Q561 130 524.5 86.0Q488 42 433.0 17.0Q378 -8 310 -8Q228 -8 164.0 27.0Q100 62 64.0 127.0Q28 192 28 279Q28 366 63.5 431.0Q99 496 163.0 531.0Q227 566 310 566Q391 566 454.0 532.0Q517 498 552.5 435.0Q588 372 588 288Q588 264 585 238ZM413 333Q413 377 383.0 403.0Q353 429 308 429Q265 429 235.5 404.0Q206 379 199 333Z"/>
<path transform="translate(668.3,138.2) scale(0.092000,-0.092000)" fill="#FFAF00" d="M519 702V565H233V417H447V284H233V0H62V702Z"/>
<path transform="translate(718.6,138.2) scale(0.092000,-0.092000)" fill="#FFAF00" d="M46 708Q46 748 74.5 774.5Q103 801 148 801Q192 801 220.5 774.5Q249 748 249 708Q249 669 220.5 642.5Q192 616 148 616Q103 616 74.5 642.5Q46 669 46 708ZM233 558V0H62V558Z"/>
<path transform="translate(745.8,138.2) scale(0.092000,-0.092000)" fill="#FFAF00" d="M392 0 285 155 195 0H10L194 285L5 558H197L304 404L394 558H579L392 277L584 0Z"/>
</svg>